<svg xmlns="http://www.w3.org/2000/svg" viewBox="0 0 64 64" fill="none">
  <rect width="64" height="64" rx="14" fill="#010101"/>
  <path d="M41.2 22.4c2.1 1.9 4.7 3.2 7.6 3.5v6.1c-2.6-.1-5.1-.9-7.3-2.2v9.8c0 7.1-5.8 12.9-12.9 12.9S15.7 46.7 15.7 39.6s5.8-12.9 12.9-12.9c.7 0 1.4.1 2.1.2v6.4c-.7-.3-1.4-.4-2.1-.4-3.6 0-6.5 2.9-6.5 6.7s2.9 6.7 6.5 6.7 6.5-2.9 6.5-6.7V14.5h6.4c.1 2.8 1.2 5.4 3.1 7.4z" fill="#fff"/>
  <path d="M39.5 20.6c2.1 1.9 4.7 3.2 7.6 3.5v4.2c-2.6-.1-5.1-.9-7.3-2.2v11.7c0 7.1-5.8 12.9-12.9 12.9-2.4 0-4.6-.7-6.5-1.8 1.7 2.8 4.8 4.7 8.3 4.7 7.1 0 12.9-5.8 12.9-12.9V20.6h-2.1z" fill="#25F4EE"/>
  <path d="M28.6 32.4v4.5c-.7-.3-1.4-.4-2.1-.4-3.6 0-6.5 2.9-6.5 6.7 0 2.4 1.3 4.5 3.2 5.7-2.8-1.1-4.8-3.8-4.8-7 0-4.2 3.4-7.6 7.6-7.6.9 0 1.8.2 2.6.5z" fill="#FE2C55"/>
</svg>
